/* XPM */
static char *_1aa7d8fee3540f8c9ea24f3181704b0etCHHbQpvcUqoOZg[] = {
/* columns rows colors chars-per-pixel */
"64 64 97 2 ",
"   c #000001",
".  c #00000C",
"X  c #000015",
"o  c #000319",
"O  c #000C1D",
"+  c #00101F",
"@  c #001421",
"#  c #001B26",
"$  c #001E29",
"%  c #00232C",
"&  c #002A32",
"*  c #003037",
"=  c #00343B",
"-  c #00383E",
";  c #003E43",
":  c #054045",
">  c #0C4146",
",  c #114247",
"<  c #154348",
"1  c #1A454A",
"2  c #1E484D",
"3  c #20474C",
"4  c #254A4E",
"5  c #294B4F",
"6  c #2D4E52",
"7  c #304F53",
"8  c #345155",
"9  c #385357",
"0  c #3B5659",
"q  c #3F585C",
"w  c #425B5E",
"e  c #465E61",
"r  c #495F62",
"t  c #4C6265",
"y  c #506467",
"u  c #57696C",
"i  c #5A6C6E",
"p  c #5D6E70",
"a  c #5F7072",
"s  c #637275",
"d  c #677678",
"f  c #6C7A7C",
"g  c #717E80",
"h  c #768284",
"j  c #7A8587",
"k  c #7D8789",
"l  c #7E888A",
"z  c #818B8C",
"x  c #8B9496",
"c  c #8D9698",
"v  c #939B9D",
"b  c #99A1A2",
"n  c #A0A7A8",
"m  c #A3AAAB",
"M  c #A8ADAE",
"N  c #A9AFB0",
"B  c #ADB3B4",
"V  c #B1B6B7",
"C  c #B5B9BA",
"Z  c #BBBFC0",
"A  c #BEC2C3",
"S  c #C3C7C7",
"D  c #C3C7C8",
"F  c #C5C9CA",
"G  c #CACDCE",
"H  c #CBCECF",
"J  c #CCCFD0",
"K  c #CDD1D1",
"L  c #D1D4D5",
"P  c #D3D6D7",
"I  c #D5D8D9",
"U  c #D9DCDC",
"Y  c #DADCDD",
"T  c #DCDFDF",
"R  c #DDDFE0",
"E  c #DFE1E2",
"W  c #E1E2E3",
"Q  c #E2E4E4",
"!  c #E3E4E4",
"~  c #E3E4E5",
"^  c #E4E5E5",
"/  c #E5E7E7",
"(  c #E6E7E8",
")  c #E6E8E8",
"_  c #ECEEEE",
"`  c #EDEEEF",
"'  c #EFF0F0",
"]  c #F1F2F2",
"[  c #F3F4F4",
"{  c gray97",
"}  c #F7F8F8",
"|  c #F8F9F9",
" . c #FBFBFB",
".. c #FBFBFC",
"X. c #FBFCFC",
"o. c gray99",
"O. c white",
/* pixels */
"O.O.O.O.O.O.O.O.O.O.O.O.O.O.O.O.O.O.O.O.O.O.O.O.O.O.O.O.O.O.O.O.O.O.O.O.O.O.O.O.O.O.O.O.O.O.O.O.O.O.O.O.O.O.O.O.O.O.O.O.O.O.O.O.",
"O.O.O.O.O.O.O.O.O.O.O.O.O.O.O.O.O.O.O.O.O.O.O.O.O.O.O.O.O.O.O.O.O.O.O.O.O.O.O.O.O.O.O.O.O.O.O.O.O.O.O.O.O.O.O.O.O.O.O.O.O.O.O.O.",
"O.O.O.O.O.O.O.O.O.O.O.O.O.O.O.O.O.O.O.O.O.O.O.O.O.O.O.O.O.O.O.O.O.O.O.O.O.O.O.O.O.O.O.O.O.O.O.O.O.O.O.O.O.O.O.O.O.O.O.O.O.O.O.O.",
"O.O.O.O.O.O.O.O.O.O.O.O.O.O.O.O.O.O.O.O.O.O.O.O.O.O.O.O.O.O.O.O.O.O.O.O.O.O.O.O.O.O.O.O.O.O.O.O.O.O.O.O.O.O.O.O.O.O.O.O.O.O.O.O.",
"O.O.O.O.O.O.O.O.O.O.O.O.O.O.O.O.O.O.O.O.O.O.O.O.O.O.O.O.O.O.O.O.O.O.O.O.O.O.O.O.O.O.O.O.O.O.O.O.O.O.O.O.O.O.O.O.O.O.O.O.O.O.O.O.",
"O.O.O.O.O.O.O.O.O.O.O.O.O.O.O.O.| O.O.| O.| O.| | O.| O.| O.| O.| O.| O.O.| | O.| O.O.| | O.| O.| O.O.O.O.O.O.O.O.O.O.O.O.O.O.O.",
"O.O.O.O.O.O.O.O.O.O.O.O.O.O.O.O.O.O.O.O.O.O.O.O.O.O.O.O.O.O.O.O.O.O.O.O.O.O.O.O.O.O.O.O.O.O.O.O.O.O.O.O.O.O.O.O.O.O.O.O.O.O.O.O.",
"O.O.O.O.O.O.O.O.O.O.O.O.O.O.` n m m n m n n m m n m n m n m n m m n m m n m m n m m n m m n m n m ] O.O.O.O.O.O.O.O.O.O.O.O.O.O.",
"O.O.O.O.O.O.O.O.O.O.O.O.| O.W     X                                                         @     ~ O.O.O.O.O.O.O.O.O.O.O.O.O.O.",
"O.O.O.O.O.O.O.O.O.O.O.O.| O.^ < - 3 1 1 1 1 1 < 1 1 1 < 1 < 1 1 1 1 < 1 1 < 1 < 1 < 1 1 1 < 5 ; < ^ O.| O.O.O.O.O.O.O.O.O.O.O.O.",
"O.O.O.O.O.O.O.O.O.O.O.O.X.O.^ ; = 1 : : : : < < < < < < < < < < < < < < < < < < < < < < < > 6 ; < ~ O.O.O.O.O.O.O.O.O.O.O.O.O.O.",
"O.O.O.O.O.O.O.O.O.O.O.O.X.O.^ ; = < : : : : ; ; ; ; ; ; ; ; ; ; ; ; ; ; ; ; ; ; ; ; ; ; ; ; 2 = ; ^ O.O.O.O.O.O.O.O.O.O.O.O.O.O.",
"O.O.O.O.O.O.O.O.O.O.O.O.X.O.~ ; = < : : ; < & . X X X X X X X X X X X X X X X X X X X X X X %   X ~ O.O.O.O.O.O.O.O.O.O.O.O.O.O.",
"O.O.O.O.O.O.O.O.O.O.O.O.X.O.~ : = < : > ; = z A V C C C C C C C C C C C C C C C C C C C C C C C C ] O.O.O.O.O.O.O.O.O.O.O.O.O.O.",
"O.O.O.O.O.O.O.O.O.O.O.O.X.O.~ ; = < ; < ; X F O.O.O.O.O.O.O.O.O.O.O.O.O.O.O.O.O.O.O.O.O.O.O.O.O.O.O.| O.O.O.O.O.O.O.O.O.O.O.O.O.",
"O.O.O.O.O.O.O.O.O.O.O.O.X.O.~ : = 1 ; < ; + Z O.{ | O.| | O.| | | | | O.| O.| | | | | O.| | | | | O.O.O.O.O.O.O.O.O.O.O.O.O.O.O.",
"O.O.O.O.O.O.O.O.O.O.O.O.X.O.~ : = < ; < ; O A O.O.O.O.O.O.O.O.O.O.O.O.O.O.O.O.O.O.O.O.O.O.O.O.O.O.O.O.O.O.O.O.O.O.O.O.O.O.O.O.O.",
"O.O.O.O.O.O.O.O.O.O.O.O.X.O.~ ; = < : < ; O C O.| | |  .O.| | O.| O.| O.| O.| | | O.| O.| O.| O.| O.O.O.O.O.O.O.O.O.O.O.O.O.O.O.",
"O.O.O.O.O.O.O.O.O.O.O.O.X.O.~ : = < : < ; X G O.O.O.O.O.O.O.O.O.O.O.O.O.O.O.O.O.O.O.O.O.O.O.O.O.O.O.O.O.O.O.O.O.O.O.O.O.O.O.O.O.",
"O.O.O.O.O.O.O.O.O.O.O.O.X.O.~ ; = < ; > ; & v P G G G G G G G G J G G J G G H G J G H H H G G K F ~ O.O.O.O.O.O.O.O.O.O.O.O.O.O.",
"O.O.O.O.O.O.O.O.O.O.O.O.X.O.~ ; = < > ; : > = $ % % % % % % % % % % % % % % % % % % % % % % # >   B O.O.O.O.O.O.O.O.O.O.O.O.O.O.",
"O.O.O.O.O.O.O.O.O.O.O.O.X.O.~ : = 1 ; ; > : ; - - - - - - - - - - - - - - - - - - - - - - - - 6   B O.O.O.O.O.O.O.O.O.O.O.O.O.O.",
"O.O.O.O.O.O.O.O.O.O.O.O.X.O.~ ; * > ; ; ; ; > 1 1 1 1 1 1 3 1 2 3 3 1 3 1 1 1 1 1 1 1 1 1 1 < q   V O.O.O.O.O.O.O.O.O.O.O.O.O.O.",
"O.O.O.O.O.O.O.O.O.O.O.O.X.O.~ 8 3 9 7 7 7 7 6 8 7 7 5 7 1 ; : ; : ; ; > 5 7 6 6 6 7 6 6 6 8 5 r   C O.O.| O.O.O.O.O.O.O.O.O.O.O.",
"O.O.O.O.O.O.O.O.O.O.O.O.| O.W                           * < : : : ; > -                       #   m O.O.O.O.O.O.O.O.O.O.O.O.O.O.",
"O.O.O.O.O.O.O.O.O.O.O.O.| O.` n n n m n n n n n m n m m p & 1 : : , - w n m n m n n n n m m n m v P O.O.O.O.O.O.O.O.O.O.O.O.O.O.",
"O.O.O.O.O.O.O.O.O.O.O.O.O.O.O.O.O.O.O.O.O.O.O.O.O.O.O.O.b   6 : : 2 # d O.O.O.O.O.O.O.O.O.O.O.O.O.O.O.O.O.O.O.O.O.O.O.O.O.O.O.O.",
"O.O.O.O.O.O.O.O.O.O.O.O.O.O.O.O.O.O.O.O.O.O.O.O.O.O.O.O.v   5 : : 1 % d | O.O.O.O.O.O.O.O.O.O.O.O.O.X.O.O.O.O.O.O.O.O.O.O.O.O.O.",
"O.O.O.O.O.O.O.O.O.O.O.O.O.O.O.O.O.O.O.O.O.O.O.O.O.O.O.O.v   5 : ; 3 $ d O.O.O.O.O.O.O.O.O.O.O.O.O.O.O.O.O.O.O.O.O.O.O.O.O.O.O.O.",
"O.O.O.O.O.O.O.O.O.O.O.O.O.O.O.O.O.O.O.O.O.O.O.O.O.| O.O.v   5 : ; 3 % d O.O.O.O.O.O.O.O.O.O.O.O.O.O.O.O.O.O.O.O.O.O.O.O.O.O.O.O.",
"O.O.O.O.O.O.O.O.E j j z k l l l k l l l l l l l l k z l r = , : ; < ; 7 l l j k l l l l l l l l l l k l l z g ~ O.O.O.O.O.O.O.O.",
"O.O.O.O.O.O.| O.I     #                       .   .     = < : : > ; ; ; .       .   .       .     .       o   U O.| O.O.O.O.O.O.",
"O.O.O.O.O.O.| O.U < < 9 6 6 6 6 6 6 6 6 6 6 6 6 6 6 6 6 < ; : ; ; ; ; : 6 6 6 6 6 6 6 6 6 6 6 6 6 6 6 6 6 8 & T O.O.O.O.O.O.O.O.",
"O.O.O.O.O.O.O.O.U > ; 9 3 4 4 4 3 4 4 4 3 4 4 4 4 4 4 5 5 5 4 5 4 6 5 6 4 4 5 3 4 4 3 4 4 4 4 4 3 4 4 4 4 6 & T O.O.O.O.O.O.O.O.",
"O.O.O.O.O.O.O.O.I O X = $ % % % % % % % % % % % % % % % % % & % % & % % % % % % % % % % % % % % % % % % % &   U O.| O.O.O.O.O.O.",
"O.O.O.O.O.O.| O.U 2 1 0 6 8 6 6 7 7 6 8 6 7 6 8 8 8 6 5 2 1 < , , < 1 3 4 6 8 8 8 8 6 6 6 8 6 7 6 6 6 8 6 9 = T O.X.O.O.O.O.O.O.",
"O.O.O.O.O.O.O.O.{ W W ~ ~ ! ! ! ! E ~ ~ ~ ~ E E T T E E ~ ^ ) ) ) ( ^ ~ ~ E R T E E ~ ! ! ! ! W ~ ! ~ ! E ~ E { O.O.O.O.O.O.O.O.",
"O.O.O.O.O.O.O.O.O.O.O.O.O.O.O.O.O.O.O.O.O.O.O.O.O.O.O.O.O.O.O.O.O.O.O.O.O.O.O.O.O.O.O.O.O.O.O.O.O.O.O.O.O.O.O.O.O.O.O.O.O.O.O.O.",
"O.O.O.O.O.O.O.O.O.......X.X.X.| X.O.} } O.O.O.' U S B b x l h f g h z c b B F U ] O.O.O.{ } | O.| X.X.X.X.X.| O.O.O.O.O.O.O.O.O.",
"O.O.O.O.O.O.O.O.O.O.O.O.O.O.O.O.O.| O.O.] F v s 4 % .                     . & 6 d b G [ O.O.| O.O.O.O.O.O.O.O.O.O.O.O.O.O.O.O.O.",
"O.O.O.O.O.O.O.O.O.O.O.O.O.O.O.O.O.O.] M y $   X % - < 1 5 5 6 4 5 5 5 4 1 > - % X   % u V ] O.O.O.O.O.O.O.O.O.O.O.O.O.O.O.O.O.O.",
"O.O.O.O.O.O.O.O.O.O.O.O.O.O.O.O.O.G e   # - 2 4 4 1 > : ; : : : : : ; ; ; < 1 5 5 1 - # . y P O.O.| O.O.O.O.O.O.O.O.O.O.O.O.O.O.",
"O.O.O.O.O.O.O.O.O.O.O.O.O.O.O.O.C . # > 4 1 > ; ; < 5 6 6 4 3 1 1 3 6 6 6 5 < ; ; > 1 4 < $ . A O.O.O.O.O.O.O.O.O.O.O.O.O.O.O.O.",
"O.O.O.O.O.O.O.O.O.O.O.O.O.| O.D   = 3 < ; ; ; 1 5 =         @ % % O         = 4 1 ; ; ; > 6 -   G O.O.O.O.O.O.O.O.O.O.O.O.O.O.O.",
"O.O.O.O.O.O.O.O.O.O.O.O.X.O.' 8 % 2 : : : : 2 $   t c C K U W ^ ^ Q I G C c e   $ 4 : : : ; 9 X e ] O.O.O.O.O.O.O.O.O.O.O.O.O.O.",
"O.O.O.O.O.O.O.O.O.O.O.O.| O.C   , , : : , > X f P { O.O.O.O.O.O.O.O.O.O.O.O.{ P f . 3 : : ; ; 9   A O.O.| O.O.O.O.O.O.O.O.O.O.O.",
"O.O.O.O.O.O.O.O.O.O.O.O.O.O.z O , > : > > @ v O.O.O.| O.O.O.O.O.O.O.O.O.O.O.O.O.O.b   8 ; : ; 9   c O.O.O.O.O.O.O.O.O.O.O.O.O.O.",
"O.O.O.O.O.O.O.O.O.O.O.O.O.| s $ < : : 1 % w ] O.| O.O.O.O.O.O.O.O.O.O.O.O.O.O.| O.] w % 6 ; ; 7 X d { O.O.O.O.O.O.O.O.O.O.O.O.O.",
"O.O.O.O.O.O.O.O.O.O.O.| O.| s $ 1 ; ; < % u | O.| O.O.O.O.O.O.O.O.O.O.O.O.O.O.| O.} s o 8 ; ; 6 X d { O.O.O.O.O.O.O.O.O.O.O.O.O.",
"O.O.O.O.O.O.O.O.O.O.O.O.O.O.k @ < : : < ; $ V O.O.O.O.O.O.O.| O.O.| O.O.O.O.O.O.O.C   5 : : ; 9   x O.O.| O.O.O.O.O.O.O.O.O.O.O.",
"O.O.O.O.O.O.O.O.O.O.O.O.| O.B   1 > : : < ; X v ~ | O.O.O.O.O.O.O.O.O.O.O.O.| W v . > < ; : ; 0   Z O.O.O.O.O.O.O.O.O.O.O.O.O.O.",
"O.O.O.O.O.O.O.O.O.O.O.O.O.O.` 4 & 5 ; : ; < 3   % h B G T ^ ` ' ` ) ^ T G M h %   4 , : > - 0 @ q ` O.| O.O.O.O.O.O.O.O.O.O.O.O.",
"O.O.O.O.O.O.O.O.O.O.O.O.O.| O.S   = 8 : ; ; > 9 <       % 2 w w e q < %       < 9 ; ; ; : 9 -   G O.O.O.O.O.O.O.O.O.O.O.O.O.O.O.",
"O.O.O.O.O.O.O.O.O.O.O.O.O.O.O.O.C   X 6 7 > ; - < 8 9 5 : = % % % % = > 6 9 9 1 ; ; < 7 8 o   Z O.O.O.O.O.O.O.O.O.O.O.O.O.O.O.O.",
"O.O.O.O.O.O.O.O.O.O.O.O.O.O.O.O.O.F t   @ 5 0 6 1 ; ; ; < 3 5 5 5 4 3 < ; ; ; 1 6 9 5 @   t G O.O.| O.O.O.O.O.O.O.O.O.O.O.O.O.O.",
"O.O.O.O.O.O.O.O.O.O.O.O.O.O.O.O.O.O.` M r     # > 6 9 9 8 7 6 5 6 6 6 9 9 9 7 ; #     t B ` O.O.O.O.O.O.O.O.O.O.O.O.O.O.O.O.O.O.",
"O.O.O.O.O.O.O.O.O.O.O.O.O.O.O.O.O.| O.O.) S c t $           X O O X           # t c S ` O.O.| O.O.O.O.O.O.O.O.O.O.O.O.O.O.O.O.O.",
"O.O.O.O.O.O.O.O.O.O.O.O.O.O.O.O.O.O.O.O.O.O.| ` I S m v l f s i i a f l v m S U ` O.O.O.O.| O.O.O.O.O.O.O.O.O.O.O.O.O.O.O.O.O.O.",
"O.O.O.O.O.O.O.O.O.O.O.O.O.O.O.O.O.O.O.O.O.O.O.O.O.O.O.O.| { [ ] [ [ { | O.O.O.O.O.O.O.| O.O.O.O.O.O.O.O.O.O.O.O.O.O.O.O.O.O.O.O.",
"O.O.O.O.O.O.O.O.O.O.O.O.O.O.O.O.O.O.O.O.O.O.| O.O.O.O.O.O.O.O.O.O.O.O.O.O.O.O.O.| O.O.O.O.O.O.O.O.O.O.O.O.O.O.O.O.O.O.O.O.O.O.O.",
"O.O.O.O.O.O.O.O.O.O.O.O.O.O.O.O.O.O.O.O.O.O.O.O.O.O.O.| O.| O.| | O.| X.X.O.O.O.O.O.O.O.O.O.O.O.O.O.O.O.O.O.O.O.O.O.O.O.O.O.O.O.",
"O.O.O.O.O.O.O.O.O.O.O.O.O.O.O.O.O.O.O.O.O.O.O.O.O.O.O.O.O.O.O.O.O.O.O.O.O.O.O.O.O.O.O.O.O.O.O.O.O.O.O.O.O.O.O.O.O.O.O.O.O.O.O.O.",
"O.O.O.O.O.O.O.O.O.O.O.O.O.O.O.O.O.O.O.O.O.O.O.O.O.O.O.O.O.O.O.O.O.O.O.O.O.O.O.O.O.O.O.O.O.O.O.O.O.O.O.O.O.O.O.O.O.O.O.O.O.O.O.O.",
"O.O.O.O.O.O.O.O.O.O.O.O.O.O.O.O.O.O.O.O.O.O.O.O.O.O.O.O.O.O.O.O.O.O.O.O.O.O.O.O.O.O.O.O.O.O.O.O.O.O.O.O.O.O.O.O.O.O.O.O.O.O.O.O."
};
