/* XPM */
static char *_326208673584237c8fecec10e2ce0a9dCx3LaMincLuJD77[] = {
/* columns rows colors chars-per-pixel */
"32 32 75 1 ",
"  c #780000",
". c #7B0000",
"X c #7C0000",
"o c #830000",
"O c #870000",
"+ c #8B0000",
"@ c #8E0000",
"# c #8C0808",
"$ c #8D0B0B",
"% c #900000",
"& c #920505",
"* c #920909",
"= c #900B0B",
"- c #8D1818",
"; c #8E1E1E",
": c #931010",
"> c #931919",
", c #8E2121",
"< c #952222",
"1 c #962525",
"2 c #952727",
"3 c #952929",
"4 c #912C2C",
"5 c #962C2C",
"6 c #973030",
"7 c #993232",
"8 c #994444",
"9 c #9A4646",
"0 c #9F5858",
"q c #9F5C5C",
"w c #A06363",
"e c #A56C6C",
"r c #A76D6D",
"t c #A67070",
"y c #A97676",
"u c #A97A7A",
"i c #B18484",
"p c #B18686",
"a c #B18787",
"s c #B38B8B",
"d c #B48A8A",
"f c #B68E8E",
"g c #BD9A9A",
"h c #BE9C9C",
"j c #BFA1A1",
"k c #C0A0A0",
"l c #C4A7A7",
"z c #C5A9A9",
"x c #C6AAAA",
"c c #C7ADAD",
"v c #CBB2B2",
"b c #CCB3B3",
"n c #CDB5B5",
"m c #CFB8B8",
"M c #D0B8B8",
"N c #D6C2C2",
"B c #D9C7C7",
"V c #DBCACA",
"C c #DCCDCD",
"Z c #DDCECE",
"A c #DED0D0",
"S c #DFD0D0",
"D c #E1D4D4",
"F c #E5DBDB",
"G c #E7DDDD",
"H c #E9E0E0",
"J c #EBE4E4",
"K c #EEE8E8",
"L c #F0EAEA",
"P c #F0EBEB",
"I c #F8F5F5",
"U c #FAF8F8",
"Y c #FDFBFB",
"T c #FDFCFC",
"R c white",
/* pixels */
"RRRRRRRRRRRRRRRRRRRRRRRRRRRRRRRR",
"RRRRRRRRRRRRRRRRRRRRRRRRRRRRRRRR",
"RRRRRRRRYRRRRRRRRRRRRURRRRRRRRRR",
"RRRRRRRBepeDRYRRRRIRGrprBRRRRRRR",
"RRRRRRRv.@.DRRRRRRRRDX@.nRRRRRRR",
"RRRRRYRmO6@dclzclllcf*6OmRYRRRRR",
"RRRRRRRmo<*+O++O+O+O@&1OmRYRRRRR",
"RRRRRRRmo<&@++++++++@&<omRRRRRRR",
"RRRRRRRnO5+cFAAADDAFb+5oMRRRRRRR",
"RRRRRYRno6ODRRRRRRRRGO6OMRYRRRRR",
"RRRRRRRmO1@rdaaddpdst@3OMRRRRRRR",
"RRRRRRRMO1:@++++++++@*3OMRRRRRRR",
"RRRRRURb.-+@$$$$#$$$@+-.vRURRRRR",
"RRRRRRRUKKKKPKKKKKKKKKKKURRRRRRR",
"RRRRGNBVACCCCZZZACACCACCVVNGRRRR",
"RRYRh.+OOOOO+OOooOOOOO+OO+.gRRRR",
"RRRRh.++++++++:<<:++++++++.hRRRR",
"RRURVglhjhjhjk8@%8hjgjjjhlgVRRRR",
"RRRRRRRRRRRRRRu@@yRRRRRRRRRRRRRR",
"RRRRRRRDVCCCCVq@@0VCVZZVHRRRRRRR",
"RRRRRRUwO+OOO+><<>O+OOO.hRTRRRRR",
"RRRRRRRqo+O++OOoOO+O+>6+zRRRRRRR",
"RRRRRRRmzzzzzzzzzzzcg:1OlRRRRRRR",
"RRRRRRRRRRRRRRRRRRRRK,1OlRRRRRRR",
"RRRRRRRRTRTRTRTRRTTRH;1OlRRRRRRR",
"RRRRRRRRRRRRRRRRRRRRJ;1OlRTRRRRR",
"RRRRRRRRRRRRRRRRRRRRJ46+lRRRRRRR",
"RRRRRRRRRRRRRRRRRRRRHo+ jRRRRRRR",
"RRRRRRRRRRRRRRRRRRRRIZZVHRRRRRRR",
"RRRRRRRRRRRRRRRRRRRRRRRRRRRRRRRR",
"RRRRRRRRRRRRRRRRRRRRRRRURRRRRRRR",
"RRRRRRRRRRRRRRRRRRRRRRRRRRRRRRRR"
};
