/* XPM */
static char *bb1010c716f1420be3b5f400d08310bc4iyJMsfLRGxeMFBt[] = {
/* columns rows colors chars-per-pixel */
"64 64 103 2 ",
"   c #700000",
".  c #730000",
"X  c #790000",
"o  c #7F0000",
"O  c #820000",
"+  c #870000",
"@  c #890000",
"#  c #8C0000",
"$  c #920000",
"%  c #920303",
"&  c #930404",
"*  c #920505",
"=  c #920808",
"-  c #920A0A",
";  c #920C0C",
":  c #930C0C",
">  c #931111",
",  c #931313",
"<  c #931414",
"1  c #931515",
"2  c #931B1B",
"3  c #941B1B",
"4  c #941E1E",
"5  c #942121",
"6  c #952424",
"7  c #962A2A",
"8  c #962B2B",
"9  c #962C2C",
"0  c #962D2D",
"q  c #973333",
"w  c #973434",
"e  c #983232",
"r  c #983737",
"t  c #993A3A",
"y  c #993B3B",
"u  c #9A3F3F",
"i  c #9B4545",
"p  c #9C4747",
"a  c #9D4848",
"s  c #A05252",
"d  c #A05353",
"f  c #A15454",
"g  c #A25959",
"h  c #A35C5C",
"j  c #A56060",
"k  c #A86868",
"l  c #AA6D6D",
"z  c #AA6F6F",
"x  c #AB7070",
"c  c #AC7272",
"v  c #AD7474",
"b  c #AE7676",
"n  c #B17D7D",
"m  c #B38282",
"M  c #B48585",
"N  c #B58686",
"B  c #B68888",
"V  c #B78A8A",
"C  c #B88C8C",
"Z  c #BA8F8F",
"A  c #BA9090",
"S  c #BD9595",
"D  c #BF9999",
"F  c #C19D9D",
"G  c #C29E9E",
"H  c #C2A0A0",
"J  c #C4A3A3",
"K  c #C6A5A5",
"L  c #C7A8A8",
"P  c #C8AAAA",
"I  c #CCB1B1",
"U  c #CDB2B2",
"Y  c #CEB4B4",
"T  c #CFB5B5",
"R  c #D1B8B8",
"E  c #D4BDBD",
"W  c #D8C6C6",
"Q  c #D9C8C8",
"!  c #DBC9C9",
"~  c #DCCCCC",
"^  c #DECDCD",
"/  c #DFD0D0",
"(  c #E1D3D3",
")  c #E3D6D6",
"_  c #E4D7D7",
"`  c #E4D8D8",
"'  c #E7DBDB",
"]  c #E7DDDD",
"[  c #E8DEDE",
"{  c #EADFDF",
"}  c #EBE1E1",
"|  c #EDE4E4",
" . c #EFE8E8",
".. c #F1EBEB",
"X. c #F4EFEF",
"o. c #F5F0F0",
"O. c #F6F2F2",
"+. c #F7F4F4",
"@. c #F8F5F5",
"#. c #FBFAFA",
"$. c #FCFBFB",
"%. c gray99",
"&. c white",
/* pixels */
"&.&.&.&.&.&.&.&.&.&.&.&.&.&.&.&.&.&.&.&.&.&.&.&.&.&.&.&.&.&.&.&.&.&.&.&.&.&.&.&.&.&.&.&.&.&.&.&.&.&.&.&.&.&.&.&.&.&.&.&.&.&.&.&.",
"&.&.&.&.&.&.&.&.&.&.&.&.&.&.&.&.&.&.&.&.&.&.&.&.&.&.&.&.&.&.&.&.&.&.&.&.&.&.&.&.&.&.&.&.&.&.&.&.&.&.&.&.&.&.&.&.&.&.&.&.&.&.&.&.",
"&.&.&.&.&.&.&.&.&.&.&.&.&.&.&.&.&.&.&.&.&.&.&.&.&.&.&.&.&.&.&.&.&.&.&.&.&.&.&.&.&.&.&.&.&.&.&.&.&.&.&.&.&.&.&.&.&.&.&.&.&.&.&.&.",
"&.&.&.&.&.&.&.&.&.&.&.&.&.&.&.&.&.&.&.&.&.&.&.&.&.&.&.&.&.&.&.&.&.&.&.&.&.&.&.&.&.&.&.&.&.&.&.&.&.&.&.&.&.&.&.&.&.&.&.&.&.&.&.&.",
"&.&.&.&.&.&.&.&.&.&.&.&.&.&.&.&.&.#.$.&.$.$.&.&.&.&.&.&.&.&.&.&.&.&.&.&.&.&.&.&.&.&.#.$.$.$.$.&.$.&.&.&.&.&.&.&.&.&.&.&.&.&.&.&.",
"&.&.&.&.&.&.&.&.&.&.&.&.&.&.&.&.&.&.&.&.&.&.&.&.&.&.&.&.&.&.&.&.&.&.&.&.&.&.&.&.&.&.&.&.&.&.&.&.&.&.&.&.&.&.&.&.&.&.&.&.&.&.&.&.",
"&.&.&.&.&.&.&.&.&.&.&.&.&.&.@.K D G G G G S E &.&.&.&.&.&.&.&.&.&.&.&.&.&.&.&.&.&.W Z J G G J F P @.&.&.&.&.&.&.&.&.&.&.&.&.&.&.",
"&.&.&.&.&.&.&.&.&.&.&.&.$.&.o.> O @ + + + o n &.&.$.&.&.&.&.&.&.&.&.&.&.&.&.&.&.&.G . # + + @ O e X.&.&.&.&.&.&.&.&.&.&.&.&.&.&.",
"&.&.&.&.&.&.&.&.&.&.&.&.&.&.o.a * 3 = < 4 @ Z &.$.&.&.&.&.&.&.&.$.&.&.&.&.&.&.&.&.H O y % * 9 @ s o.&.&.&.&.&.&.&.&.&.&.&.&.&.&.",
"&.&.&.&.&.&.&.&.&.&.&.&.$.&.o.a # < * ; < @ Z &.&.&.&.&.&.&.&.&.&.&.&.&.&.&.&.&.&.K o y % % 9 @ s X.&.$.&.&.&.&.&.&.&.&.&.&.&.&.",
"&.&.&.&.&.&.&.&.&.&.&.&.&.&.o.a # < % % ; @ n | [ } } } [ } } } } } [ } } } } } } Z + q % % 9 @ s o.&.&.&.&.&.&.&.&.&.&.&.&.&.&.",
"&.&.&.&.&.&.&.&.&.&.&.&.&.&.o.p # = % % * = * @ @ @ # @ @ @ @ @ @ @ @ @ # @ @ @ @ # ; % * % 9 @ f o.&.$.&.&.&.&.&.&.&.&.&.&.&.&.",
"&.&.&.&.&.&.&.&.&.&.&.&.#.&.o.i % , % % % * = 5 4 5 4 4 5 4 4 4 4 4 4 4 4 4 4 4 5 > % % % % 9 @ f o.&.&.&.&.&.&.&.&.&.&.&.&.&.&.",
"&.&.&.&.&.&.&.&.&.&.&.&.&.&.o.i # , % % % * * : ; : : : ; ; ; > : ; > ; ; ; > ; : * % % % % 9 @ f o.&.&.&.&.&.&.&.&.&.&.&.&.&.&.",
"&.&.&.&.&.&.&.&.&.&.&.&.&.&.+.p # , % % % % = 4 2 2 4 4 2 2 2 2 4 2 2 2 4 2 2 3 4 ; * % % % 8 @ s o.&.&.&.&.&.&.&.&.&.&.&.&.&.&.",
"&.&.&.&.&.&.&.&.&.&.&.&.&.&.o.p # : % % % ; @ O + + + @ + O + + @ + + O + + + O @ @ , % % % 8 @ s o.&.$.&.&.&.&.&.&.&.&.&.&.&.&.",
"&.&.&.&.&.&.&.&.&.&.&.&.$.&.o.a # > % % * # g P K K K K K K J K K K K K K K K L L k @ 5 % % 9 # f o.&.&.&.&.&.&.&.&.&.&.&.&.&.&.",
"&.&.&.&.&.&.&.&.&.&.&.&.&.&.o.p # < % = , @ Z &.&.&.&.&.&.&.&.&.&.&.&.&.&.&.&.&.&.K O y % % 9 @ d o.&.&.&.&.&.&.&.&.&.&.&.&.&.&.",
"&.&.&.&.&.&.&.&.&.&.&.&.$.&.o.p # > % = > @ V &.#.#.#.&.&.#.&.&.&.#.&.#.&.#.#.&.&.H O w % # 9 @ s o.&.#.&.&.&.&.&.&.&.&.&.&.&.&.",
"&.&.&.&.&.&.&.&.&.&.&.&.&.&.o.i # < % * > + A &.&.&.&.&.&.&.&.&.&.&.&.&.&.&.&.&.&.K O r % % 9 @ f X.&.&.&.&.&.&.&.&.&.&.&.&.&.&.",
"&.&.&.&.&.&.&.&.&.&.&.&.$.&.o.i # , % % = # j T I I I T U U U T I I I T T I I T T c @ 5 % % 8 @ d o.&.&.&.&.&.&.&.&.&.&.&.&.&.&.",
"&.&.&.&.&.&.&.&.&.&.&.&.&.&.+.a # ; % % * ; # @ + + @ + + + + @ + + + + @ @ + + + @ , * % % 8 @ d o.&.#.&.&.&.&.&.&.&.&.&.&.&.&.",
"&.&.&.&.&.&.&.&.&.&.&.&.$.&.o.a # < % % % % * = ; ; ; ; = ; = ; ; = = ; ; = ; = = % % * % % 9 @ d o.&.&.&.&.&.&.&.&.&.&.&.&.&.&.",
"&.&.&.&.&.&.&.&.&.&.&.&.&.&.o.p # = % % % % * ; = ; ; = ; ; ; = ; ; ; ; : ; ; ; = % % % % % 8 @ d o.&.&.&.&.&.&.&.&.&.&.&.&.&.&.",
"&.&.&.&.&.&.&.&.&.&.&.&.&.&.o.s % q 8 9 9 9 9 8 8 8 8 8 8 8 8 8 9 9 8 8 8 8 8 8 8 9 9 9 9 8 u # h o.&.$.&.&.&.&.&.&.&.&.&.&.&.&.",
"&.&.&.&.&.&.&.&.&.&.&.&.#.&.o.# O + O O O + O O O + O O O O O O O @ O O O O O + O + O O O O @ X 3 X.&.&.&.&.&.&.&.&.&.&.&.&.&.&.",
"&.&.&.&.&.&.&.&.&.&.&.&.&.&.#.! W ! ! W ! W W W ! W ! ! W ! ! ! ! W ! ! ! ! ! W ! W W W ! W ! W ~ $.&.&.&.&.&.&.&.&.&.&.&.&.&.&.",
"&.&.&.&.&.&.&.&.&.&.&.&.&.&.&.&.&.&.&.&.&.&.&.&.&.&.&.&.&.&.&.&.&.&.&.&.&.&.&.&.&.&.&.&.&.&.&.&.&.&.&.&.&.&.&.&.&.&.&.&.&.&.&.&.",
"&.&.&.&.&.&.&.&.&.&.&.&.&.&.&.&.&.#.&.&.#.&.&.&.&.&.&.&.&.#.&.&.&.&.&.&.&.&.&.#.&.&.$.&.&.$.&.&.$.&.&.&.&.&.&.&.&.&.&.&.&.&.&.&.",
"&.&.&.&.&.&.&.&.[ l l b x x c c c c c c c x c c x x c x c x l b x x x x x x x x c c c c c c c c c c c l c b j } &.$.&.&.&.&.&.&.",
"&.&.&.&.&.&.#.&.) + + # @ @ @ @ @ @ @ @ @ @ @ @ + @ @ @ @ @ @ @ @ @ @ @ @ @ @ @ @ @ @ @ @ @ @ @ @ @ @ @ @ # + ` &.&.&.&.&.&.&.&.",
"&.&.&.&.&.&.$.&.` % % q 5 6 6 6 6 6 6 6 6 6 6 6 6 6 6 6 6 8 6 6 6 6 9 6 6 6 6 6 6 6 6 6 6 6 6 6 6 6 6 6 6 9 @ ` &.$.&.&.&.&.&.&.",
"&.&.&.&.&.&.$.&._ % % 8 4 5 5 4 4 5 5 4 4 5 5 4 5 4 5 4 * % % % % % % * 5 5 4 5 4 4 5 5 4 5 5 4 5 4 5 5 4 8 # } &.&.&.&.&.&.&.&.",
"&.&.&.&.&.&.&.&._ @ @ % # # # # % # # # % # # # # % # @ % * % % % % * % # # % # % # # # # % # # % # % # # # + ` &.$.&.&.&.&.&.&.",
"&.&.&.&.&.&.#.&._ % % 3 % % % % % % % % % % % % % % % % % % % % % % % % % % % % % # % % % % % % % % % % % > @ ` &.$.&.&.&.&.&.&.",
"&.&.&.&.&.&.&.&.o._ _ _ _ _ ` ) ) ) ` ` ) ) _ ) ) _ ` ) b + 5 % % 2 @ l ` ) ) ) ` ` ) _ _ ` ) ` ) ) ) ) ` ` _ @.&.&.&.&.&.&.&.&.",
"&.&.&.&.&.&.&.&.&.&.&.&.&.&.&.&.&.&.&.&.&.&.&.&.&.&.&.&.Z O 9 % % 8 + V &.&.&.&.&.&.&.&.&.&.&.&.&.&.&.&.&.&.&.&.&.&.&.&.&.&.&.&.",
"&.&.&.&.&.&.&.&.&.$.$.$.$.$.&.$.&.$.$.$.#.&.&.#.&.#.&.#.V O 9 % @ 6 @ m &.$.$.&.#.&.&.#.#.&.#.&.$.#.$.$.$.$.#.&.&.&.&.&.&.&.&.&.",
"&.&.&.&.&.&.&.&.&.&.&.&.&.&.&.&.&.&.&.&.&.&.&.&.&.&.&.&.Z @ 8 % % 6 @ N &.&.&.&.&.&.&.&.&.&.&.&.&.&.&.&.&.&.&.&.&.&.&.&.&.&.&.&.",
"&.&.&.&.&.&.&.&.&.&.&.&.&.&.L N Z Z V Z C C C V Z Z A N a # , % % , # i Z V V Z C C V Z A N Z V V | &.&.&.&.&.&.&.&.&.&.&.&.&.&.",
"&.&.&.&.&.&.&.&.&.&.&.&.#.&.b X + + + + + + O + + + + + @ , % % % % = * + + + + + + O + + + + + O ] &.$.&.&.&.&.&.&.&.&.&.&.&.&.",
"&.&.&.&.&.&.&.&.&.&.&.&.&.&.N @ 6 5 4 5 4 5 5 4 4 4 4 5 = % % % % % * = 4 4 5 4 4 5 4 4 4 3 8 4 # [ &.&.&.&.&.&.&.&.&.&.&.&.&.&.",
"&.&.&.&.&.&.&.&.&.&.&.&.&.&.M @ > = * * * * * * * * * * * * % * % % % % * * * * * * * * % % 3 % # [ &.&.&.&.&.&.&.&.&.&.&.&.&.&.",
"&.&.&.&.&.&.&.&.&.&.&.&.#.&.M @ 4 2 < < < < < < < 4 < < < < < < < < < , < 4 < < < ; % % % % 3 % # } &.&.&.&.&.&.&.&.&.&.&.&.&.&.",
"&.&.&.&.&.&.&.&.&.&.&.&.&.&.n O # # # # @ @ # # # # # # # # # # @ # @ # # # # # @ @ ; % % % 3 % # [ &.&.&.&.&.&.&.&.&.&.&.&.&.&.",
"&.&.&.&.&.&.&.&.&.&.&.&.&.&...} | | | [ | | | | | } | | | | | } | | | } | | | } ..R + 6 % % 3 % # [ &.&.&.&.&.&.&.&.&.&.&.&.&.&.",
"&.&.&.&.&.&.&.&.&.&.&.&.&.&.&.&.&.&.&.&.&.&.&.&.&.&.&.&.&.&.&.&.&.&.&.&.&.&.&.&.&.) O 9 * % 2 % # [ &.&.&.&.&.&.&.&.&.&.&.&.&.&.",
"&.&.&.&.&.&.&.&.&.&.&.&.&.&.&.&.&.&.&.&.&.&.&.&.#.&.&.&.&.&.&.&.&.&.&.&.&.&.&.$.&.~ + 8 = * 3 % # [ &.&.&.&.&.&.&.&.&.&.&.&.&.&.",
"&.&.&.&.&.&.&.&.&.&.&.&.&.&.&.&.&.&.&.&.&.&.&.&.&.&.&.&.&.&.&.&.&.&.&.&.&.&.&.&.&.~ O 8 * % 3 % # [ &.&.&.&.&.&.&.&.&.&.&.&.&.&.",
"&.&.&.&.&.&.&.&.&.&.&.&.&.&.&.&.&.&.&.&.&.&.&.&.&.&.&.&.&.&.&.&.&.&.&.&.&.&.&.&.&.~ + 8 * % 3 % # [ &.&.&.&.&.&.&.&.&.&.&.&.&.&.",
"&.&.&.&.&.&.&.&.&.&.&.&.&.&.&.&.&.&.&.&.&.&.&.&.&.&.&.&.&.&.&.&.&.&.&.&.&.&.#.&.&.~ O 8 * % 3 % # [ &.&.&.&.&.&.&.&.&.&.&.&.&.&.",
"&.&.&.&.&.&.&.&.&.&.&.&.&.&.&.&.&.&.&.&.&.&.&.&.&.&.&.&.&.&.&.&.&.&.&.&.&.&.&.&.&.~ + 8 * % 2 % # [ &.&.&.&.&.&.&.&.&.&.&.&.&.&.",
"&.&.&.&.&.&.&.&.&.&.&.&.&.&.&.&.&.&.&.&.&.&.&.&.&.&.&.&.&.&.&.&.&.&.&.&.&.&.&.&.&.~ + 9 * % 2 % # [ &.&.&.&.&.&.&.&.&.&.&.&.&.&.",
"&.&.&.&.&.&.&.&.&.&.&.&.&.&.&.&.&.&.&.&.&.&.&.&.&.&.&.&.&.&.&.&.&.&.&.&.&.&.&.&.&.~ O 9 % % < * # [ &.&.&.&.&.&.&.&.&.&.&.&.&.&.",
"&.&.&.&.&.&.&.&.&.&.&.&.&.&.&.&.&.&.&.&.&.&.&.&.&.&.&.&.&.&.&.&.&.&.&.&.&.&.&.&.&./ @ a r w u w 3 [ &.&.&.&.&.&.&.&.&.&.&.&.&.&.",
"&.&.&.&.&.&.&.&.&.&.&.&.&.&.&.&.&.&.&.&.&.&.&.&.&.&.&.&.&.&.&.&.&.&.&.&.&.&.&.&.&.!   + O O O O o ] &.&.&.&.&.&.&.&.&.&.&.&.&.&.",
"&.&.&.&.&.&.&.&.&.&.&.&.&.&.&.&.&.&.&.&.&.&.&.&.&.&.&.&.&.&.&.&.&.&.&.&.&.&.&.&.&.] N S A A A A Z | &.&.&.&.&.&.&.&.&.&.&.&.&.&.",
"&.&.&.&.&.&.&.&.&.&.&.&.&.&.&.&.&.&.&.&.&.&.&.&.&.&.&.&.&.&.&.&.&.&.&.&.&.&.&.&.&.&.&.&.&.&.&.&.&.&.&.&.&.&.&.&.&.&.&.&.&.&.&.&.",
"&.&.&.&.&.&.&.&.&.&.&.&.&.&.&.&.&.&.&.&.&.&.&.&.&.&.&.&.&.&.&.&.&.&.&.&.&.&.&.&.&.&.&.&.&.&.&.&.&.&.&.&.&.&.&.&.&.&.&.&.&.&.&.&.",
"&.&.&.&.&.&.&.&.&.&.&.&.&.&.&.&.&.&.&.&.&.&.&.&.&.&.&.&.&.&.&.&.&.&.&.&.&.&.&.&.&.&.$.&.&.&.#.&.$.&.&.&.&.&.&.&.&.&.&.&.&.&.&.&.",
"&.&.&.&.&.&.&.&.&.&.&.&.&.&.&.&.&.&.&.&.&.&.&.&.&.&.&.&.&.&.&.&.&.&.&.&.&.&.&.&.&.&.&.&.&.&.&.&.&.&.&.&.&.&.&.&.&.&.&.&.&.&.&.&.",
"&.&.&.&.&.&.&.&.&.&.&.&.&.&.&.&.&.&.&.&.&.&.&.&.&.&.&.&.&.&.&.&.&.&.&.&.&.&.&.&.&.&.&.&.&.&.&.&.&.&.&.&.&.&.&.&.&.&.&.&.&.&.&.&.",
"&.&.&.&.&.&.&.&.&.&.&.&.&.&.&.&.&.&.&.&.&.&.&.&.&.&.&.&.&.&.&.&.&.&.&.&.&.&.&.&.&.&.&.&.&.&.&.&.&.&.&.&.&.&.&.&.&.&.&.&.&.&.&.&.",
"&.&.&.&.&.&.&.&.&.&.&.&.&.&.&.&.&.&.&.&.&.&.&.&.&.&.&.&.&.&.&.&.&.&.&.&.&.&.&.&.&.&.&.&.&.&.&.&.&.&.&.&.&.&.&.&.&.&.&.&.&.&.&.&."
};
