/* XPM */
static char *_43a80b93cf1413f9c271424d0516f06E67SD6kDvDul3wsR[] = {
/* columns rows colors chars-per-pixel */
"64 64 55 1 ",
"  c #000073",
". c #00007E",
"X c #000083",
"o c #00008C",
"O c #000191",
"+ c #040992",
"@ c #090E92",
"# c #0D1192",
"$ c #121593",
"% c #161993",
"& c #1B1D94",
"* c #1E2094",
"= c #232594",
"- c #272895",
"; c #2A2C96",
": c #2F3097",
"> c #313397",
", c #353798",
"< c #373898",
"1 c #3A3B99",
"2 c #43449B",
"3 c #494A9D",
"4 c #5253A0",
"5 c #5A5BA3",
"6 c #6363A5",
"7 c #6C6DA9",
"8 c #6F70AA",
"9 c #7374AC",
"0 c #7A7AAF",
"q c #7D7EB1",
"w c #8283B3",
"e c #8A8BB7",
"r c #8D8DB8",
"t c #9494BC",
"y c #9999BF",
"u c #9C9CC1",
"i c #A4A4C5",
"p c #AAAAC9",
"a c #B4B5CE",
"s c #B6B6D0",
"d c #B7B8D0",
"f c #BBBBD2",
"g c #C2C2D7",
"h c #C4C4D8",
"j c #CACADB",
"k c #D5D5E2",
"l c #D7D8E4",
"z c #D9D9E6",
"x c #DEDEE9",
"c c #E6E6EE",
"v c #E9E9EF",
"b c #EAEAF0",
"n c #F3F3F7",
"m c #F5F5F8",
"M c #FFFFFF",
/* pixels */
"MMMMMMMMMMMMMMMMMMMMMMMMMMMMMMMMMMMMMMMMMMMMMMMMMMMMMMMMMMMMMMMM",
"MMMMMMMMMMMMMMMMMMMMMMMMMMMMMMMMMMMMMMMMMMMMMMMMMMMMMMMMMMMMMMMM",
"MMMMMMMMMMMMMMMMMMMMMMMMMMMMMMMMMMMMMMMMMMMMMMMMMMMMMMMMMMMMMMMM",
"MMMMMMMMMMMMMMMMMMMMMMMMMMMMMMMMMMMMMMMMMMmMMMmMMMMMMMMMMMMMMMMM",
"MMMMMMMMMMMMMMMMMMMMMMMMMMMMMMMMMMMMMMMMMMMMMMMMMMMMMMMMMMMMMMMM",
"MMMMMMMMMMMMMMMMMMMMMMMMMMMMMMMMMMMMMMMMMkupiipipnMMMMMMMMMMMMMM",
"MMMMMMMMMMMMMMMMMMMMMMMMMMMMMMMMMMMMMMMMMa OoXoXovMMMMMMMMMMMMMM",
"MMMMMMMMMMmnnnnnnnMMMMMMMMMMMMMMMMMMMMMMMaX,O+-o>vMMMMMMMMMMMMMM",
"MMMMMMMMMMhO<2<<1-bMMMMMMMMMMMMMMMMMMMMMMsX1++-o>vMMMMMMMMMMMMMM",
"MMMMMMMMMMgXOOOOOocMMMMMMMMMMMMMMMMMMMMMMa.,OO-O>vMMMMMMMMMMMMMM",
"MMMMMMMMmMhoO&@@$OvMMMMMMMMMMMMMMMMMMMMMMs.<OO-o>bMMMMMMMMMMMMMM",
"MMMMMMMMMMhoO&O+@ovMMMMMMMMMMMMMMMMMMMMMMaX<OO-O:bMMMMMMMMMMMMMM",
"MMMMMMMMMMhoO&O+#OvMMMMMMMMMMMMMMMMMMMMMMs.<OO-o>bMMMMMMMMMMMMMM",
"MMMMMMMMmMhoO&O+@OvMMMMMMMMMMMMMMMMMMMMMMsX<OO-O:vMmMMMmMMMMMMMM",
"MMMMMMMMMMhoO&O+#ovMMMMMMMMMMMMMMMMMMMMMMsX<OO-o>bMMMMMMMMMMMMMM",
"MMMMMMMMMMhoO&O+@ovMMMMMMMMMMMMMMMMMMMMMMs.<OO-o;cMmmmmnMMMMMMMM",
"MMMMMMMMmMhoo&O+#OvMMMMMMMMMMMMMMMMMMMMMMsX<O+#O$6978886xMMMMMMM",
"MMMMMMMMMMhoO&O+#OvMMMMMMMMMMMMMMMMMMMMMMs.<O+O@OXXXXXo.kMMMMMMM",
"MMMMMMMMmMhoO&O+#OvMMMMMMMMMMMMMMMMMMMMMMsX<OO+O+;,>>>,olMMMMMMM",
"MMMMMMMMMMhoO&O+@ovMMMMMMMMMMMMMMMMMMMMMMsX<O+++++@@@@$olMmMMMMM",
"MMMMMMMMMMgoO*O+@OvMMMMMMMMMMMMMMMMMMMMMMsX<OO+O+&*&**=okMMMMMMM",
"MMMMMMMMmMhoO&O+#ocMMMMMMMMMMMMMMMMMmMMMMs.<O+O@OoXoooo.kMMMMMMM",
"MMMMMMMMMMhoO&O+@ovMMMMMMMMMMmMmMMMMMMMMMsX<OO*O-hxlzzzknMMMMMMM",
"MMMMMMMMMMhoO&O+@OcMMmMMMMMMMMMMMMnvjcMMMa.<OO-o>nMMMMMMMMMMMMMM",
"MMMMMMMMMMgoO&O+#onMMMMMMMmbckgpt94;.pMMMsX<OO-o:bMmMMMMMMMMMMMM",
"MMMMMMMMMMhoO&O++Otuyteq953;OooXXooOorMMMs.<OO-o>bMMMMMMMMMMMMMM",
"MMMMMMMMMMgoO&O+++oXXooooooOoO+@#$$*o7MMMsX<OO-O>bMMMMMMMMMMMMMM",
"MMMMMMMMMMhXO&O+++$%$%$$$###@#@@###%o2nMMs.<OO-o>bMMMMMMMMMMMMMM",
"MMMMMMMMmMhoo&O+++@@@##$$%$%$$$$#+OOoXcMMsX<OO-O>vMMMMMMMMMMMMMM",
"MMMMMMMMMMho+-$%$$$%$@+OOoOooooooXoO39cMMs.<OO-o:bMMMMMMMMMMMMMM",
"MMMMMMMMMMgXooXoooXooXoXoooO;36wyajxnMMMMs.,OO-o>vMMMMMMMMMMMMMM",
"MMMMMMMMmMk6909q0qwrtypafjkxbnMMMMMMMMMMMdX2&=,O1vMMMMMMMMMMMMMM",
"MMMMMMMMMMMMMMMMMMMMMMMMMMMMMMMMMmmMMMMMMa oXooXobMMMMMMMMMMMMMM",
"MMMMMMMMMMMMMMMMMMMMmMMmMmMmMmMMMMMMMMMMMh5090q7qbMMMMMMMMMMMMMM",
"MMMMMMMMMMMMMMMmmMMMMMMMMMMMMMMMMMMMMMMMMMMmmMmMmMMMMMMMMMMMMMMM",
"MMMMMMMMMMMMMMMMMMMMMMMMMMMMMMMMMMMMMMMMMMMMMMMMMMMMMMMMMMMMMMMM",
"MMMMMMMMMMMMMMMxafffffffdfffffffffffdfffffdfdddafmMMMMMMMMMMMMMM",
"MMMMMMMMMMMMMMMa.XoXXXoXXXoXXXoXXXXXXXoXXoXoXXoXovMMMMMMMMMMMMMM",
"MMMMMMMMMMMMMmMdX&=&&&&%&&&&&&&%&&&&&&&&%&&&&%>O<bMMMMMMMMMMMMMM",
"MMMMMMMMMMMMMMMdo%%$$$%%%%%%%%%%%%%%%%%%%$$$$#;O,bMMMMMMMMMMMMMM",
"MMMMMMMMMMMMMMMsX@+OOOO*-==-==-=-===--=-=%O+OO-o:vMMMMMMMMMMMMMM",
"MMMMMMMMMMMMMmMdo@@++@OooXXooXXooooXXooXoo$O+O-O>vMMMMMMMMMMMMMM",
"MMMMMMMMMMMMMmMdo@@+%+;hclzzzzxzxzxzzzzxcuX;OO-o>bMMMMMMMMMMMMMM",
"MMMMMMMMMMMMMMMsX@@O&o>bMMMMMMMMMMMMMMMMMf.<OO-O>vMMMMMMMMMMMMMM",
"MMMMMMMMMMMMMmMdo@#O&o>cMMMMMMMMMMMMMMMMMa.,OO-o>bMMMMMMMMMMMMMM",
"MMMMMMMMMMMMMMMso@#O&o:cMmMMMMMMMMMMMMMMMsX<OO-o>bMMMMMMMMMMMMMM",
"MMMMMMMMMMMMMMMsX@#O&o:cMMMMMMMMMMMMMMMMMsX<OO-O;vMMMMMMMMMMMMMM",
"MMMMMMMMMMMMMmMso@#O&O:cMmMMMMMMMMMMMMmMMa.,OO-o>vMMMMMMMMMMMMMM",
"MMMMMMMMMMMMMmMdX@@O*o:cMMMMMMMMMMMMMMMMMdX<OO-o>bMMMMMMMMMMMMMM",
"MMMMMMMMMMMMMMMdo@@O*o>bMMMMMMMMMMMMMMMMMd.,OO-O>bMMMMMMMMMMMMMM",
"MMMMMMMMMMMMMmMsX@@O$O*ifaaaaaaaaaaaaaaadwo-OO-o;vMMMMMMMMMMMMMM",
"MMMMMMMMMMMMMMMdo@@+O#OX.X.X.X.X.XX..XXX.o&O+O-o>vMMMMMMMMMMMMMM",
"MMMMMMMMMMMMMmMdo++OOOO><,,,,,,,<,,,,,,,<=O+OO-o>vMMMMMMMMMMMMMM",
"MMMMMMMMMMMMMMMdo==*=*=&&&&&&&&&&&&&&&&&&*=&=&>O1bMMMMMMMMMMMMMM",
"MMMMMMMMMMMMMmMaXOoOOOOOoOOOOOOOOOOOOoOOOOOoOO&o-bMMMMMMMMMMMMMM",
"MMMMMMMMMMMMMMMsXoOOoooooooOoooOooooOooOoooOooOo#bMMMMMMMMMMMMMM",
"MMMMMMMMMMMMMMMbkzzzzlzzzzzzlzllzlzzzlzlzzzlzlzlxmMMMMMMMMMMMMMM",
"MMMMMMMMMMMMMMMMMMMMMMMMMMMMMMMMMMMMMMMMMMMMMMMMMMMMMMMMMMMMMMMM",
"MMMMMMMMMMMMMMMMMmMMMMMmMMMmMMMMMMMmmMMMMmMMMMMmMMMMMMMMMMMMMMMM",
"MMMMMMMMMMMMMMMMMMMMMMMMMMMMMMMMMMMMMMMMMMMMMMMMMMMMMMMMMMMMMMMM",
"MMMMMMMMMMMMMMMMMMMMMMMMMMMMMMMMMMMMMMMMMMMMMMMMMMMMMMMMMMMMMMMM",
"MMMMMMMMMMMMMMMMMMMMMMMMMMMMMMMMMMMMMMMMMMMMMMMMMMMMMMMMMMMMMMMM",
"MMMMMMMMMMMMMMMMMMMMMMMMMMMMMMMMMMMMMMMMMMMMMMMMMMMMMMMMMMMMMMMM",
"MMMMMMMMMMMMMMMMMMMMMMMMMMMMMMMMMMMMMMMMMMMMMMMMMMMMMMMMMMMMMMMM"
};
