/* XPM */
static char *_e47c884f402426bedb7367d6e0c6203UEaPfgSSTzBrrU89[] = {
/* columns rows colors chars-per-pixel */
"64 64 57 1 ",
"  c #746400",
". c #7C6E00",
"X c #7F7200",
"o c #837700",
"O c #867A00",
"+ c #897D00",
"@ c #8D8200",
"# c #918700",
"$ c #928802",
"% c #92890C",
"& c #938914",
"* c #948A1B",
"= c #958B23",
"- c #978D2E",
"; c #978E33",
": c #988F36",
"> c #999037",
", c #9A913B",
"< c #9B9242",
"1 c #9E964C",
"2 c #9F9751",
"3 c #A19956",
"4 c #A29A5A",
"5 c #A69E63",
"6 c #A7A068",
"7 c #AAA46E",
"8 c #ADA776",
"9 c #AFA97A",
"0 c #B1AA7C",
"q c #B6B18A",
"w c #B9B48E",
"e c #BCB795",
"r c #BEBA99",
"t c #C2BD9F",
"y c #C4BFA2",
"u c #C6C2A5",
"i c #C7C3A9",
"p c #CAC6AE",
"a c #CECAB4",
"s c #D4D1BE",
"d c #D6D3C2",
"f c #D9D7C6",
"g c #DAD8C7",
"h c #DCDACB",
"j c #E0DED1",
"k c #E3E1D5",
"l c #E5E4D9",
"z c #E8E7DD",
"x c #E9E8DE",
"c c #EDECE4",
"v c #EFEEE8",
"b c #F0EFE9",
"n c #F2F2ED",
"m c #F5F4F0",
"M c #F8F7F4",
"N c #F9F9F6",
"B c #FFFFFF",
/* pixels */
"BBBBBBBBBBBBBBBBBBBBBBBBBBBBBBBBBBBBBBBBBBBBBBBBBBBBBBBBBBBBBBBB",
"BBBBBBBBBBBBBBBBBBBBBBBBBBBBBBBBBBBBBBBBBBBBBBBBBBBBBBBBBBBBBBBB",
"BBBBBBBBBBBBBBBBBBBBBBBBBBBBBBBBBBBBBBBBBBBBBBBBBBBBBBBBBBBBBBBB",
"BBBBBBBBBBBBBBBBBBBBBBBBBBBBBBBBBBBBBBBBBBBBBBBBBBBBBBBBBBBBBBBB",
"BBBBBBBBBBBBBBBBBBBBBBBBBBBBBBBBBBBBBBBBBBBBBBBBBBBBBBBBBBBBBBBB",
"BBBBBBBBBBBBBBBBBBBBBBBBBBBBBBBBBBBBBBBBBBBBBBBBBBBBBBBBBBBBBBBB",
"BBBBBBBBBBBBBBBBBBBBBBBBBBBBBBBBBBBBBBBBBBBBBBBBBBBBBBBBBBBBBBBB",
"BBBBBBBBBBBBBBBBBBBBBBBBBBBBBBBBBBBBBBBBBBBBBBBBBBBBBBBBBBBBBBBB",
"BBBBBBBBBBBBBBBBBBBBBBBBBBBBBBBBBBBBBBBBBBBBBBBBBBBBBBBBBBBBBBBB",
"BBBBBBBBBBBBBBBBBBBBBBBBBBBBBBBBBBBBBBBBBBBBBBBBBBBBBBBBBBBBBBBB",
"BBBBBBBBBBBBBBBBBBBBBBBBBBBBBBBBBBBBBBBBBBBBBBBBBBBBBBBBBBBBBBBB",
"BBBBBBBBBBBBBBBBBBBBBBBBBBBBBBBBBBBBBBBBBBBNzkllllkcBBBBBBBBBBBB",
"BBBBBBBBBBBBBBBBBBBBBBBBBBBBBBBBBBBBBBBBBBBn,.+OO+ qBBBBBBBBBBBB",
"BBBBBBBBBBBBBBBBBBBBNBBBBBNBBBBBBBBBBBBBBBBm5@<==<+rBBBBBBBBBBBB",
"BBBBBBBBBBBBBBBBBBBBBBBBBBBBBBBBBBBBBBBBBBBm4+-##;oeBBBBBBBBBBBB",
"BBBBBBBBBBBBBBBBBBBBnbbbbnvnBBBBBBBBBBBBBNBn4O;##:oeBBBBBBBBBBBB",
"BBBBBBBBBBBBBBBBBBBN5=<,,1@0NBBBBBBBBBBBBNBm4+-##;oeBBBBBBBBBBBB",
"BBBBBBBBBBBBBBBBBBBN,+@@@#X5MBNBBBBBBBBBBBBm4+-##;oeBBBBBBBBBBBB",
"BBBBBBBBBBBBBBBBBBBN3#:-=<+8MBBBBBBBBBBBBBBm4+-##;oeBBBBBBBBBBBB",
"BBBBBBBBBBBBBBBBBBBN1@*##-o8MBBBBBBBBBBBBBBm4+;##:oeBBBBBBBBBBBB",
"BBBBBBBBBBBBBBBBBBBN1@*$#;O7NBBBBBBBBBBBBBBn4O-##;oeBBBBBBBBBBBB",
"BBBBBBBBBBBBBBBBBBBN1@*$#;O7NBNBBBBBBBBBBNBm4+-##;OeBBBBBBBBBBBB",
"BBBBBBBBBBBBBBBBBBBN2@=$#;O7MBBBBBBBBBBBBBBm4+-##;oeBBBBBBBBBBBB",
"BBBBBBBBBBBBBBBBBBBN1@*$#;O7MBNBBBBBBBBBBBBm4+;$#;oeBBBBBBBBBBBB",
"BBBBBBBBBBBBBBBBBBBN<#*$$;O6MBBBBBBBBBBBBNBm4+-##;oeBBBBBBBBBBBB",
"BBBBBBBBBBBBBBBBBBBm;@&$#-+4nBBBBBBBBBBBBBBm4+-##;OeBBBBBBBBBBBB",
"BBBBBBBBBBBBBBBBBBBn#$&$#-+<vBBBBBBBBBBBBBBn4+-##;oeBBBBBBBBBBBB",
"BBBBBBBBBBBBBBBBBBBx+=$$#=@$lBBBBBBBBBBBBBBm4O;##;oeBBBBBBBBBBBB",
"BBBBBBBBBBBBBBBBBBBhO-#$$*$+hBNBBBBNBNBNNNBn4@;##;oeBBBBBBBBBBBB",
"BBBBBBBBBBBBBBBBBBBao-#$$$-oaBBBBBj155555564*@%$#;oeBBBBBBBBBBBB",
"BBBBBBBBBBBBBBBBBBBwO-#$$#:oeBBBNBgo@@@+@++@#%$$$;oeBBBBBBBBBBBB",
"BBBBBBBBBBBBBBBBBBN2@*#$$#-+2nBBBBh+=======*$$$$$;oeBBBBBBBBBBBB",
"BBBBBBBBBBBBBBBBBBx+*$$$##*&+jBBNBh+**&&&&*&$#$$#;orBBBBBBBBBBBB",
"BBBBBBBBBBBBBBBBBBpO=#$$$$#>otBBNBg+$$######$$$$#;oeBBBBBBBBBBBB",
"BBBBBBBBBBBBBBBBBN4@&$$$$$#=+,bBBBf.++++++++#%#$#;oeBBBBBBBBBBBB",
"BBBBBBBBBBBBBBBBBjO=$$$$#$$#;oaBBBvsfdddddga<@=$#;oeBBBBBBBBBBBB",
"BBBBBBBBBBBBBBBBB8+*$$$**#$$=@;bBNBBBBBBBBBN4O;##;oeBBBBBBBBBBBB",
"BBBBBBBBBBBBBBNBh+&$$$$##&#%#>otBBBBBNBBBNBn4+-##;oeBBBBBBBBBBBB",
"BBBBBBBBBBBBBBBN3@&$$$#;,#%#$%=OhBBBBBBBBBBm4+-##;oeBBBBBBBBBBBB",
"BBBBBBBBBBBBBBBuO*$$%$+raX;#%#=@$cBNBBBBBBBm4+;##;orBBBBBBBBBBBB",
"BBBBBBBBBBBBNBh+#&$$*#+lm@#=#%#;+1nBNBBBBBBn4+-##;oeBBBBBBBBBBBB",
"BBBBBBBBBBBNBx&@*$$$&+7BBio;#$$#-+2nBBBBBBBn4+-##;OeBBBBBBBBBBBB",
"BBBBBBBBBBBBc,+=$$$&#@jBBm4O;#%#$=+<zBBBBBBm4+-##;oeBBBBBBBBBBBB",
"BBBBBBBBBBBx,+=$$$$*OwBBBBl@@-#$$$*+@aBBBBBm4O;##;oeBBBBBBBBBBBB",
"BBBBBBBBBBh$+=$$$$*@<mBBBBBsO#=#$$$&#O0cBNBm4+-##;oeBBBBBBBBBBBB",
"BBBBBBBBBiO@=$$$$&@@lBNBBBBBpo%*$$$$&*X5BBBm4+;##;oeBBBBBBBBBBBB",
"BBBBBBBc4O*&$$$$&%osBBBBBBBBBio#=$$$&@#cBNBm4+-#$;oeBBBBBBBBBBBB",
"BBBBBBBn4+;$$$$*%opBBBBBBBBBBBaO@=%$*OaBBBBn4+-#$;oeBBBBBBBBBBBB",
"BBBBBBBBc-+-$$*$oiBBBBBBBBBBBBBf$+&-O0BBBNBm4+-##;oeBBBBBBBBBBBB",
"BBBBBBBBBh+#-=@+aBBBBBBBBBBBBBNBx4O+*nBBBBBm4+-##;oeBBBBBBBBBBBB",
"BBBBBBBBBBio#+&gBBBBBBBBBBBBBBBBBNy+hBNBBBBm4O-#$;oeBBBBBBBBBBBB",
"BBBBBBBBBBBwX9cBBBBBBBBBBBBBBBBBBBBcBBBBBBBm4+;#$;oeBBBBBBBBBBBB",
"BBBBBBBBBNBndNBBBBBBBBBBBBBBBBBBBBBBBBBBBBBn4+-##;oeBBBBBBBBBBBB",
"BBBBBBBBBBBBBBNBBBBBBBBBBBBBBBBBBBBNBBBBBNBm4+-#$;oeBBBBBBBBBBBB",
"BBBBBBBBBBBBNBBBBBBBBBBBBBBBBBBBBBBBBBBBBBBm4+-#@;oeBBBBBBBBBBBB",
"BBBBBBBBBBBBBBBBBBBBBBBBBBBBBBBBBBBBBBBBBBBm4+;#$;oeBBBBBBBBBBBB",
"BBBBBBBBBBBBBBBBBBBBBBBBBBBBBBBBBBBBBBBBBBBm4+-##;oeBBBBBBBBBBBB",
"BBBBBBBBBBBBBBBBBBBBBBBBBBBBBBBBBBBBBBBBBNBn4+-$#;OeBBBBBBBBBBBB",
"BBBBBBBBBBBBBBBBBBBBBBBBBBBBBBBBBBBBBBBBBBBm4+;$#;oeBBBBBBBBBBBB",
"BBBBBBBBBBBBBBBBBBBBBBBBBBBBBBBBBBBBBBBBBBBm4+-@#;oeBBBBBBBBBBBB",
"BBBBBBBBBBBBBBBBBBBBBBBBBBBBBBBBBBBBBBBBBBBm4+;$#;oeBBBBBBBBBBBB",
"BBBBBBBBBBBBBBBBBBBBBBBBBBBBBBBBBBBBBBBBBNBn4+;$$:orBBBBBBBBBBBB",
"BBBBBBBBBBBBBBBBBBBBBBBBBBBBBBBBBBBBBBBBBBBn3O&@@=XeBBBBBBBBBBBB",
"BBBBBBBBBBBBBBBBBBBBBBBBBBBBBBBBBBBBBBBBBBBBncbvvbcnBBBBBBBBBBBB"
};
